# xmcd CD database file
#
# Track frame offsets:
#	150
#	16125
#	28587
#	45900
#	56300
#	67137
#	78860
#	110812
#	128850
#	141525
#
# Disc length: 2056 seconds
#
# Revision: 1
# Processed by: cddbd v1.5.2PL0 Copyright (c) Steve Scherf et al.
# Submitted via: CDex 1.51
#
DISCID=8408060a
DTITLE=Willie Nelson - Always On My Mind
DYEAR=1998
DGENRE=Country
TTITLE0=Always On My Mind
TTITLE1=Whiskey River
TTITLE2=Wind Beneath My Wings
TTITLE3=So You Think Your A Cowboy
TTITLE4=Stormy Weather
TTITLE5=On The Sunny Side of the Street
TTITLE6=Sunday Mornin' Comin' Down
TTITLE7=Tenderly
TTITLE8=Forgiving You Was Easy
TTITLE9=The Party's Over
EXTD=YEAR: 1998
EXTT0=
EXTT1=
EXTT2=
EXTT3=
EXTT4=
EXTT5=
EXTT6=
EXTT7=
EXTT8=
EXTT9=
PLAYORDER=
